<svg version="1.1" id="Layer_1" xmlns="http://www.w3.org/2000/svg" xmlns:xlink="http://www.w3.org/1999/xlink" x="0px" y="0px"
	 width="100%" viewBox="0 0 496 496" enable-background="new 0 0 496 496" xml:space="preserve">
<path fill="#000000" opacity="1.000000" stroke="none" 
	d="
M310.659271,242.311829 
	C299.396454,240.271820 291.988220,244.012848 287.127502,254.241440 
	C284.249146,260.298462 280.318542,260.331940 277.445251,254.427414 
	C272.563110,244.394714 265.430115,240.843948 254.426697,242.110565 
	C246.610580,243.010284 240.729828,236.837738 240.651917,228.980865 
	C240.480255,211.666077 240.500275,194.346436 240.712738,177.032089 
	C240.807617,169.300812 246.684402,164.209320 255.434235,163.886520 
	C261.254852,163.671799 267.097473,163.649536 272.915192,163.896210 
	C276.977295,164.068466 279.467316,163.148224 278.836914,158.470795 
	C278.771484,157.985397 278.859924,157.472397 278.922058,156.977890 
	C279.155396,155.120483 279.981415,153.852112 282.068420,153.819794 
	C284.469025,153.782623 285.528809,155.241318 285.226379,157.317291 
	C284.351349,163.323608 287.524963,164.230606 292.517548,163.917221 
	C297.825134,163.584076 303.173737,163.735107 308.498627,163.883545 
	C318.439209,164.160660 324.221191,170.070007 324.261230,180.003403 
	C324.324371,195.656738 324.339294,211.310760 324.263367,226.963959 
	C324.220245,235.847198 319.782684,240.899872 310.659271,242.311829 
M246.502518,187.632843 
	C246.470078,194.788239 246.543823,201.946365 246.359344,209.097839 
	C246.270294,212.549728 247.598679,213.800583 251.041000,213.784546 
	C271.684540,213.688248 292.328888,213.689377 312.972504,213.777283 
	C316.281311,213.791367 317.814972,212.869751 317.750824,209.255646 
	C317.579437,199.602737 317.790955,189.943558 317.674042,180.288986 
	C317.590424,173.380890 314.418335,170.377243 307.416809,170.357788 
	C292.433411,170.316132 277.439453,170.689392 262.469360,170.240921 
	C249.464737,169.851334 245.697601,172.235031 246.502518,187.632843 
M246.852921,222.342010 
	C245.495010,232.057663 248.656891,235.831909 258.155365,235.830170 
	C260.653381,235.829727 263.176636,236.048355 265.644165,235.772202 
	C270.723663,235.203705 274.275116,236.960205 276.631195,241.611877 
	C278.019318,244.352493 280.010986,246.787384 282.083801,249.886978 
	C284.438385,246.480881 286.532959,243.889511 288.137360,241.023712 
	C290.351929,237.068054 293.408478,235.422409 297.951904,235.762054 
	C301.924225,236.059006 305.953308,235.978104 309.932800,235.705917 
	C315.445648,235.328888 317.821075,231.445221 317.759155,224.514557 
	C317.703400,218.276749 313.164001,220.432114 310.227356,220.407562 
	C291.243652,220.248871 272.257874,220.302490 253.273071,220.364746 
	C251.214066,220.371506 248.880157,219.574829 246.852921,222.342010 
z"/>
<path fill="#000000" opacity="1.000000" stroke="none" 
	d="
M357.427795,175.911987 
	C352.204102,174.129944 348.721619,171.517929 347.934387,165.677551 
	C347.646362,163.540863 345.456879,161.530045 342.712555,160.848511 
	C341.389465,160.519943 340.741058,159.118652 340.886963,157.622070 
	C341.035461,156.099014 342.195984,155.938004 343.395416,155.743103 
	C345.110229,155.464447 347.500061,156.438354 348.304230,154.284546 
	C349.299408,151.619019 349.363953,148.561722 348.235443,145.979721 
	C347.380951,144.024719 346.553772,141.663132 343.796844,140.972626 
	C341.975555,140.516464 340.439667,139.089645 340.776062,136.938049 
	C341.138763,134.618103 343.273285,135.259888 344.818115,135.037979 
	C348.762878,134.471313 350.492584,128.505951 347.927094,123.887512 
	C346.884613,122.010933 345.605408,120.314316 343.358856,119.528435 
	C341.686157,118.943298 340.504608,117.633240 340.920746,115.675583 
	C341.335876,113.722618 343.086487,113.805817 344.546265,113.843605 
	C347.024933,113.907761 349.007019,113.308403 350.624512,111.202873 
	C352.118073,109.258751 354.546509,109.549431 356.681976,109.704697 
	C362.230713,110.108131 368.403931,107.744820 372.860260,113.387779 
	C373.344971,114.001549 375.092438,113.585732 376.247406,113.710487 
	C377.812378,113.879539 379.825989,113.362595 380.107910,115.804741 
	C380.337616,117.794685 379.046387,118.836075 377.438171,119.574623 
	C373.261505,121.492699 372.097626,124.985046 372.028198,129.274643 
	C371.972412,132.720764 372.454163,135.278702 376.805267,134.924683 
	C378.086090,134.820465 379.641357,134.931854 380.043060,136.605698 
	C380.504761,138.529373 379.440765,139.996994 377.847900,140.660889 
	C372.846130,142.745651 371.846588,146.704208 372.010895,151.569290 
	C372.111145,154.538284 373.204681,155.799622 376.200439,155.717834 
	C377.705170,155.676727 379.835938,155.179047 380.080170,157.678131 
	C380.270844,159.629684 378.982819,160.633316 377.311890,161.354340 
	C373.975403,162.794067 372.399323,165.597092 371.764282,169.003754 
	C371.217102,171.939178 369.711609,174.004181 366.628235,174.273560 
	C363.610992,174.537170 363.319977,176.418152 363.322327,178.794662 
	C363.343109,199.791580 363.336426,220.788559 363.319672,241.785507 
	C363.318085,243.753143 363.501862,245.460251 365.983734,245.805191 
	C367.876373,246.068253 368.379822,247.403992 368.091766,249.107941 
	C367.811951,250.763153 366.517395,251.172943 365.122864,251.181931 
	C362.125183,251.201263 359.125549,251.146591 356.129150,251.048203 
	C354.561584,250.996704 353.070435,250.649582 352.887665,248.680511 
	C352.739838,247.087723 353.570618,246.135818 355.099213,245.887619 
	C357.932922,245.427490 357.678925,243.286270 357.675568,241.286697 
	C357.639038,219.624634 357.594177,197.962585 357.427795,175.911987 
z"/>
<path fill="#000000" opacity="1.000000" stroke="none" 
	d="
M307.109680,268.452301 
	C306.872833,273.174408 301.190704,269.724548 300.447937,273.359436 
	C307.646484,276.960449 307.646484,276.960449 309.794952,270.000793 
	C311.213898,265.404175 320.005493,262.814056 323.863556,265.797546 
	C324.823608,266.539948 324.994629,267.339325 324.707550,268.382416 
	C324.291809,269.892975 323.720032,271.180084 321.818909,271.317322 
	C320.266083,271.429382 318.340149,270.947510 317.742462,273.144226 
	C318.058105,274.856323 319.432251,274.581757 320.512054,274.700470 
	C322.107086,274.875824 322.893402,275.736145 323.013000,277.278900 
	C323.141052,278.930603 322.687531,280.562744 320.943390,280.768555 
	C317.106476,281.221375 317.212311,283.800934 317.274139,286.589752 
	C317.344330,289.753723 317.203766,292.922852 317.294800,296.085724 
	C317.376007,298.906372 316.474152,300.373566 313.319092,300.405243 
	C310.072144,300.437805 309.387390,298.935028 309.514587,296.095062 
	C309.685852,292.271027 309.573334,288.433441 309.550812,284.601837 
	C309.532440,281.477112 307.644989,280.515564 304.914917,280.946259 
	C302.528137,281.322845 299.186920,280.395721 299.372833,284.777252 
	C299.535156,288.602417 299.350586,292.440979 299.421173,296.271790 
	C299.468170,298.822571 298.772095,300.342834 295.798004,300.368103 
	C292.732086,300.394135 291.621521,299.052521 291.700562,296.149017 
	C291.791260,292.819397 291.717560,289.485016 291.697479,286.152832 
	C291.691467,285.154572 292.032471,283.626587 291.526428,283.238464 
	C284.470825,277.827271 292.361023,273.745605 292.952240,269.120361 
	C293.435242,265.341675 297.656738,264.776794 301.049316,264.807953 
	C303.475616,264.830200 306.720734,264.047974 307.109680,268.452301 
z"/>
<path fill="#000000" opacity="1.000000" stroke="none" 
	d="
M285.229065,292.916290 
	C285.149994,300.217621 285.146301,300.237946 278.300751,298.990417 
	C276.630768,298.686096 275.528503,299.910461 274.135529,300.340515 
	C268.297058,302.143097 263.513855,300.047180 262.123169,294.952545 
	C260.716919,289.800934 263.762909,285.851105 270.005341,284.644775 
	C272.081879,284.243469 274.285004,284.280609 276.642181,282.835541 
	C275.332031,279.649231 272.907532,280.153412 270.620483,280.920288 
	C268.128143,281.756012 265.995819,282.076782 265.202362,278.855469 
	C264.292114,275.160187 267.465485,275.256470 269.451782,274.805206 
	C280.210724,272.360840 285.195923,276.428223 285.230286,287.452881 
	C285.235474,289.113892 285.229462,290.774994 285.229065,292.916290 
M272.023254,294.504883 
	C274.736023,294.858032 276.693085,293.907593 276.539856,290.969452 
	C276.431122,288.883972 274.387146,289.109406 273.098511,289.550232 
	C270.858154,290.316528 269.274750,291.684418 272.023254,294.504883 
z"/>
<path fill="#000000" opacity="1.000000" stroke="none" 
	d="
M393.632996,300.248108 
	C391.137329,298.805298 389.312347,299.058655 386.896820,300.080902 
	C379.646454,303.149292 373.769836,298.657227 374.704285,291.227966 
	C375.215973,287.159760 378.145142,285.748779 381.464844,284.867950 
	C383.965759,284.204376 386.567871,283.922180 389.562225,283.392944 
	C387.784241,279.460297 385.190918,280.164246 382.703796,281.006317 
	C380.335266,281.808197 378.509186,281.857269 377.656067,278.958008 
	C376.635101,275.488342 379.530762,275.482727 381.356995,274.980865 
	C384.419647,274.139130 387.640442,274.097412 390.758087,274.817566 
	C394.543945,275.692108 397.055511,278.075439 397.244385,282.047577 
	C397.481415,287.032227 397.275116,292.036774 397.321625,297.032196 
	C397.342865,299.314331 396.396667,300.473236 393.632996,300.248108 
M382.997711,291.201385 
	C382.134888,292.935547 382.688995,294.129547 384.511047,294.545959 
	C386.459198,294.991180 388.108459,294.386139 389.120605,292.545959 
	C389.632233,291.615723 389.842468,290.467773 388.840363,289.897949 
	C386.939301,288.816956 385.051270,289.136169 382.997711,291.201385 
z"/>
<path fill="#000000" opacity="1.000000" stroke="none" 
	d="
M218.838989,274.156067 
	C215.547684,274.201416 213.489349,273.441376 213.770660,269.946136 
	C214.027145,266.759369 216.379898,266.969269 218.512573,266.946014 
	C223.988007,266.886353 229.464447,266.913086 234.940475,266.916748 
	C237.249954,266.918274 239.229156,267.168640 239.314697,270.293762 
	C239.395020,273.227264 237.859085,274.252869 235.348267,274.040558 
	C230.889587,273.663666 230.141632,276.049622 230.293121,279.817352 
	C230.512939,285.284424 230.254471,290.769043 230.368042,296.242706 
	C230.428635,299.163422 229.390701,300.479218 226.329697,300.414124 
	C223.448624,300.352875 222.637451,298.941315 222.663803,296.356018 
	C222.724670,290.382751 222.629364,284.407990 222.680344,278.434509 
	C222.701111,276.001495 222.302185,274.075989 218.838989,274.156067 
z"/>
<path fill="#000000" opacity="1.000000" stroke="none" 
	d="
M354.981445,281.569458 
	C348.018646,280.818726 346.435974,281.941437 346.327576,287.368378 
	C346.212585,293.123749 348.742950,295.093781 354.415710,293.683563 
	C355.363892,293.447845 356.329437,293.282135 357.502655,293.039429 
	C359.144745,297.230164 358.377777,299.867096 353.718445,300.713501 
	C348.851807,301.597565 344.181885,301.168152 341.040161,297.047424 
	C337.282379,292.118683 337.839691,286.292114 339.689941,280.873505 
	C341.334106,276.058380 345.598877,274.435852 350.475952,274.460358 
	C351.801788,274.467041 353.134003,274.554474 354.450562,274.711426 
	C356.091553,274.907074 358.229309,275.037842 358.461761,276.924683 
	C358.715393,278.983337 358.339020,281.366302 354.981445,281.569458 
z"/>
<path fill="#000000" opacity="1.000000" stroke="none" 
	d="
M258.745178,280.932495 
	C251.495010,282.751801 250.436523,284.075867 250.359604,291.353455 
	C250.340271,293.183350 250.260956,295.015808 250.328552,296.842651 
	C250.423538,299.409210 249.203934,300.366150 246.712692,300.383392 
	C244.080032,300.401642 242.652161,299.545624 242.692276,296.671631 
	C242.766556,291.349152 242.588120,286.021942 242.725067,280.702118 
	C242.776154,278.717438 241.666626,276.083374 244.379059,274.990662 
	C246.793228,274.018097 248.808838,275.181580 250.220093,277.282288 
	C252.959183,275.361542 255.628525,273.223267 258.653107,274.831482 
	C261.168884,276.169159 259.169220,278.690491 258.745178,280.932495 
z"/>
<path fill="#000000" opacity="1.000000" stroke="none" 
	d="
M411.218140,296.748413 
	C411.006317,300.730804 408.445435,300.331787 406.118500,300.293335 
	C403.306549,300.246887 403.036835,298.217651 403.031372,296.139801 
	C403.016113,290.332520 403.105438,284.524963 403.098755,278.717590 
	C403.095490,275.897064 404.135468,274.455688 407.237061,274.548798 
	C410.249390,274.639221 411.336945,275.971710 411.289581,278.852234 
	C411.194122,284.658386 411.249634,290.467041 411.218140,296.748413 
z"/>
<path fill="#000000" opacity="1.000000" stroke="none" 
	d="
M333.285522,299.323242 
	C326.685242,301.064972 325.853912,300.480896 325.802124,294.439056 
	C325.758179,289.312469 325.809784,284.185120 325.774567,279.058411 
	C325.756073,276.367462 326.562164,274.654755 329.696167,274.597626 
	C332.645508,274.543854 334.025787,275.771210 333.975494,278.666565 
	C333.858063,285.428986 334.562653,292.208954 333.285522,299.323242 
z"/>
<path fill="#000000" opacity="1.000000" stroke="none" 
	d="
M224.728058,182.064026 
	C228.808838,179.803619 230.004547,182.236679 230.111801,185.207184 
	C230.345703,191.685089 230.238861,198.177002 230.187225,204.662521 
	C230.170151,206.807404 229.434067,208.865707 226.941132,208.901199 
	C224.381226,208.937683 223.676025,206.862152 223.757675,204.707886 
	C224.039566,197.269669 222.800827,189.783661 224.728058,182.064026 
z"/>
<path fill="#000000" opacity="1.000000" stroke="none" 
	d="
M340.328552,190.097534 
	C340.318359,195.380142 340.305145,200.178131 340.300690,204.976105 
	C340.298828,206.962158 339.845215,208.885086 337.492493,208.837830 
	C335.198730,208.791748 334.701660,206.890198 334.704010,204.896179 
	C334.711548,198.443802 334.699097,191.991379 334.717590,185.539047 
	C334.723541,183.465637 334.942810,181.157486 337.591644,181.193207 
	C340.286163,181.229568 340.285034,183.606155 340.311035,185.642242 
	C340.327942,186.965652 340.323822,188.289352 340.328552,190.097534 
z"/>
<path fill="#000000" opacity="1.000000" stroke="none" 
	d="
M366.067383,301.087402 
	C363.316681,300.455322 361.897491,298.991455 362.039276,296.509033 
	C362.140747,294.732025 363.240356,293.404205 364.995605,292.967346 
	C367.246826,292.407043 369.433350,292.679169 370.281525,295.207794 
	C371.419556,298.600494 369.908173,300.551910 366.067383,301.087402 
z"/>
<path fill="#000000" opacity="1.000000" stroke="none" 
	d="
M332.770508,271.727997 
	C329.945587,273.552795 327.723694,273.180206 326.216217,270.600098 
	C325.340790,269.101715 325.383331,267.362671 326.938965,266.177704 
	C328.651978,264.872925 330.617920,264.598480 332.407288,265.926514 
	C334.469482,267.457031 334.641846,269.407104 332.770508,271.727997 
z"/>
<path fill="#000000" opacity="1.000000" stroke="none" 
	d="
M409.946777,271.686707 
	C407.316101,273.325867 405.238281,273.007263 403.693481,270.752991 
	C402.642822,269.219818 402.875671,267.553162 404.207581,266.293243 
	C405.650208,264.928528 407.463318,264.722809 409.203491,265.680206 
	C411.824066,267.121979 411.768219,269.167633 409.946777,271.686707 
z"/>
<path fill="#000000" opacity="1.000000" stroke="none" 
	d="
M296.711700,189.711426 
	C302.231415,189.520279 304.809235,191.347275 304.579895,195.099945 
	C304.400848,198.028992 302.927185,200.151093 299.924530,200.771866 
	C296.897980,201.397614 294.731689,200.030548 293.534149,197.303497 
	C292.073639,193.977509 293.405914,191.563477 296.711700,189.711426 
z"/>
<path fill="#000000" opacity="1.000000" stroke="none" 
	d="
M270.889679,197.403381 
	C268.399292,201.434021 265.295349,202.059494 261.977966,199.426315 
	C259.296753,197.298080 258.880066,194.311966 261.062286,191.541626 
	C263.225281,188.795700 266.108337,188.599121 268.992523,190.431442 
	C271.453491,191.994904 271.567474,194.453079 270.889679,197.403381 
z"/>
</svg>